<svg xmlns="http://www.w3.org/2000/svg" xmlns:xlink="http://www.w3.org/1999/xlink" aria-hidden="true" role="img" class="iconify iconify--logos" width="31.88" height="32" preserveAspectRatio="xMidYMid meet" viewBox="0 0 256 257"><defs><linearGradient id="IconifyId1813088fe1fbc01fb466" x1="-.828%" x2="57.636%" y1="7.652%" y2="78.411%"><stop offset="0%" stop-color="#41D1FF"></stop><stop offset="100%" stop-color="#BD34FE"></stop></linearGradient><linearGradient id="IconifyId1813088fe1fbc01fb467" x1="43.376%" x2="50.316%" y1="2.242%" y2="89.03%"><stop offset="0%" stop-color="#FFEA83"></stop><stop offset="8.333%" stop-color="#FFDD35"></stop><stop offset="100%" stop-color="#FFA800"></stop></linearGradient></defs><path fill="url(#IconifyId1813088fe1fbc01fb466)" d="M255.153 37.938L134.897 252.976c-2.483 4.44-8.862 4.466-11.382.048L.875 37.958c-4.334-6.334-3.675-14.93 1.54-20.5L67.318 40.02c3.014-3.293 7.67-3.685 11.087-.868l111.927 77.94c1.468 1.02 3.447.873 4.734-.36l.027-.027c1.373-1.303 1.816-3.315 1.126-5.068L134.477 34.583a7.558 7.558 0 0 1 4.56-7.668l100.45 36.981c6.08 2.247 10.45 7.864 11.667 14.042Z"></path><path fill="url(#IconifyId1813088fe1fbc01fb467)" d="M255.153 37.938L134.897 252.976c-2.483 4.44-8.862 4.466-11.382.048L.875 37.958c-4.334-6.334-3.675-14.93 1.54-20.5L67.318 40.02c3.014-3.293 7.67-3.685 11.087-.868l111.927 77.94c1.468 1.02 3.447.873 4.734-.36l.027-.027c1.373-1.303 1.816-3.315 1.126-5.068L134.477 34.583a7.558 7.558 0 0 1 4.56-7.668l100.45 36.981c6.08 2.247 10.45 7.864 11.667 14.042Z"></path></svg>